<svg viewBox="0 0 1100 780" xmlns="http://www.w3.org/2000/svg" font-family="'Segoe UI',Arial,sans-serif">
  <defs>
    <linearGradient id="headerGrad" x1="0%" y1="0%" x2="100%" y2="0%">
      <stop offset="0%"   stop-color="#0f2444"/>
      <stop offset="60%"  stop-color="#1e3a8a"/>
      <stop offset="100%" stop-color="#1d4ed8"/>
    </linearGradient>
    <linearGradient id="mlGrad" x1="0%" y1="0%" x2="100%" y2="100%">
      <stop offset="0%"  stop-color="#7c3aed"/>
      <stop offset="100%" stop-color="#4f46e5"/>
    </linearGradient>
    <linearGradient id="ocrGrad" x1="0%" y1="0%" x2="100%" y2="100%">
      <stop offset="0%"  stop-color="#0369a1"/>
      <stop offset="100%" stop-color="#0284c7"/>
    </linearGradient>
    <linearGradient id="tramGrad" x1="0%" y1="0%" x2="100%" y2="100%">
      <stop offset="0%"  stop-color="#047857"/>
      <stop offset="100%" stop-color="#059669"/>
    </linearGradient>
    <linearGradient id="cvGrad" x1="0%" y1="0%" x2="100%" y2="100%">
      <stop offset="0%"  stop-color="#9a3412"/>
      <stop offset="100%" stop-color="#c2410c"/>
    </linearGradient>
    <filter id="shadow" x="-10%" y="-10%" width="120%" height="130%">
      <feDropShadow dx="0" dy="3" stdDeviation="4" flood-color="#00000018"/>
    </filter>
    <marker id="arr" markerWidth="10" markerHeight="7" refX="9" refY="3.5" orient="auto">
      <polygon points="0 0, 10 3.5, 0 7" fill="#94a3b8"/>
    </marker>
    <marker id="arr-blue" markerWidth="10" markerHeight="7" refX="9" refY="3.5" orient="auto">
      <polygon points="0 0, 10 3.5, 0 7" fill="#2563eb"/>
    </marker>
    <marker id="arr-purple" markerWidth="10" markerHeight="7" refX="9" refY="3.5" orient="auto">
      <polygon points="0 0, 10 3.5, 0 7" fill="#7c3aed"/>
    </marker>
  </defs>

  <!-- Background -->
  <rect width="1100" height="780" fill="#f0f4f8" rx="0"/>

  <!-- ─── HEADER ──────────────────────────────────────────── -->
  <rect x="0" y="0" width="1100" height="70" fill="url(#headerGrad)"/>
  <text x="40" y="28" fill="white" font-size="22" font-weight="800" letter-spacing="-0.5">🏛️  Sistema Automatizado de Gestión Documental y Selección de Currículos — ML</text>
  <text x="40" y="52" fill="rgba(255,255,255,0.65)" font-size="13">Municipalidad Provincial de Yau  ·  Arquitectura del Sistema  ·  Python + Flask + scikit-learn</text>

  <!-- ─── SECTION LABELS ───────────────────────────────────── -->
  <!-- ENTRADA -->
  <rect x="20" y="90" width="200" height="26" rx="6" fill="#e2e8f0"/>
  <text x="120" y="108" text-anchor="middle" fill="#475569" font-size="11" font-weight="700" letter-spacing="0.08em">CAPA DE ENTRADA</text>

  <!-- PROCESAMIENTO -->
  <rect x="300" y="90" width="200" height="26" rx="6" fill="#ede9fe"/>
  <text x="400" y="108" text-anchor="middle" fill="#5b21b6" font-size="11" font-weight="700" letter-spacing="0.08em">PROCESAMIENTO</text>

  <!-- ML ENGINE -->
  <rect x="560" y="90" width="200" height="26" rx="6" fill="#dbeafe"/>
  <text x="660" y="108" text-anchor="middle" fill="#1e40af" font-size="11" font-weight="700" letter-spacing="0.08em">ML ENGINE</text>

  <!-- SALIDA -->
  <rect x="820" y="90" width="250" height="26" rx="6" fill="#dcfce7"/>
  <text x="945" y="108" text-anchor="middle" fill="#14532d" font-size="11" font-weight="700" letter-spacing="0.08em">RESULTADOS Y ALERTAS</text>

  <!-- ═══════════════════════════════════════════════════════
       FLUJO 1: TRÁMITES
  ════════════════════════════════════════════════════════ -->

  <!-- Label flujo tramites -->
  <text x="40" y="158" fill="#1e40af" font-size="13" font-weight="800">📄  FLUJO 1 — GESTIÓN DE TRÁMITES</text>
  <line x1="40" y1="163" x2="1060" y2="163" stroke="#bfdbfe" stroke-width="1.5"/>

  <!-- BOX 1: Usuario / Documento -->
  <rect x="24" y="178" width="172" height="90" rx="14" fill="white" filter="url(#shadow)" stroke="#e2e8f0" stroke-width="1.5"/>
  <rect x="24" y="178" width="172" height="8" rx="7" fill="#0f2444"/>
  <rect x="24" y="182" width="172" height="4" fill="#0f2444"/>
  <text x="110" y="222" text-anchor="middle" fill="#0f172a" font-size="22">📋</text>
  <text x="110" y="243" text-anchor="middle" fill="#0f172a" font-size="12" font-weight="700">Documento Trámite</text>
  <text x="110" y="258" text-anchor="middle" fill="#64748b" font-size="10">JPG / PNG / PDF</text>

  <!-- ARROW 1→2 -->
  <line x1="196" y1="223" x2="262" y2="223" stroke="#94a3b8" stroke-width="1.8" marker-end="url(#arr)" stroke-dasharray="5,3"/>
  <text x="229" y="218" text-anchor="middle" fill="#94a3b8" font-size="9">upload</text>

  <!-- BOX 2: OCR Module -->
  <rect x="264" y="178" width="180" height="90" rx="14" fill="white" filter="url(#shadow)" stroke="#bae6fd" stroke-width="2"/>
  <rect x="264" y="178" width="180" height="8" rx="7" fill="url(#ocrGrad)"/>
  <rect x="264" y="182" width="180" height="4" fill="url(#ocrGrad)"/>
  <text x="354" y="215" text-anchor="middle" fill="#0369a1" font-size="20">🔍</text>
  <text x="354" y="235" text-anchor="middle" fill="#0f172a" font-size="12" font-weight="700">OCR Processor</text>
  <text x="354" y="250" text-anchor="middle" fill="#64748b" font-size="10">pytesseract + OpenCV</text>
  <text x="354" y="263" text-anchor="middle" fill="#64748b" font-size="10">Preprocesamiento imagen</text>

  <!-- ARROW 2→3 -->
  <line x1="444" y1="223" x2="520" y2="223" stroke="#94a3b8" stroke-width="1.8" marker-end="url(#arr)" stroke-dasharray="5,3"/>
  <text x="482" y="218" text-anchor="middle" fill="#94a3b8" font-size="9">texto OCR</text>

  <!-- BOX 3: Clasificador -->
  <rect x="522" y="178" width="196" height="90" rx="14" fill="white" filter="url(#shadow)" stroke="#c4b5fd" stroke-width="2"/>
  <rect x="522" y="178" width="196" height="8" rx="7" fill="url(#mlGrad)"/>
  <rect x="522" y="182" width="196" height="4" fill="url(#mlGrad)"/>
  <text x="620" y="213" text-anchor="middle" fill="#5b21b6" font-size="18">🤖</text>
  <text x="620" y="232" text-anchor="middle" fill="#0f172a" font-size="12" font-weight="700">ClasificadorTramites</text>
  <text x="620" y="248" text-anchor="middle" fill="#64748b" font-size="10">TF-IDF Vectorizer</text>
  <text x="620" y="262" text-anchor="middle" fill="#64748b" font-size="10">Random Forest Classifier</text>

  <!-- ARROW 3→4 -->
  <line x1="718" y1="223" x2="800" y2="223" stroke="#94a3b8" stroke-width="1.8" marker-end="url(#arr)" stroke-dasharray="5,3"/>
  <text x="759" y="218" text-anchor="middle" fill="#94a3b8" font-size="9">prioridad + tipo</text>

  <!-- BOX 4: Cola Priorizada -->
  <rect x="802" y="178" width="268" height="90" rx="14" fill="white" filter="url(#shadow)" stroke="#bbf7d0" stroke-width="2"/>
  <rect x="802" y="178" width="268" height="8" rx="7" fill="url(#tramGrad)"/>
  <rect x="802" y="182" width="268" height="4" fill="url(#tramGrad)"/>
  <text x="936" y="213" text-anchor="middle" fill="#047857" font-size="18">📊</text>
  <text x="936" y="232" text-anchor="middle" fill="#0f172a" font-size="12" font-weight="700">Cola Priorizada + Alertas</text>
  <!-- mini priority badges -->
  <rect x="820" y="248" width="52" height="18" rx="9" fill="#fff1f1" stroke="#fecaca" stroke-width="1"/>
  <text x="846" y="261" text-anchor="middle" fill="#991b1b" font-size="9" font-weight="700">⚡ CRÍTICO</text>
  <rect x="880" y="248" width="42" height="18" rx="9" fill="#fff8f1" stroke="#fed7aa" stroke-width="1"/>
  <text x="901" y="261" text-anchor="middle" fill="#9a3412" font-size="9" font-weight="700">🔺 ALTO</text>
  <rect x="930" y="248" width="44" height="18" rx="9" fill="#fefce8" stroke="#fde68a" stroke-width="1"/>
  <text x="952" y="261" text-anchor="middle" fill="#854d0e" font-size="9" font-weight="700">📋 MEDIO</text>
  <rect x="982" y="248" width="38" height="18" rx="9" fill="#f0fdf4" stroke="#bbf7d0" stroke-width="1"/>
  <text x="1001" y="261" text-anchor="middle" fill="#166534" font-size="9" font-weight="700">✅ BAJO</text>

  <!-- ═══════════════════════════════════════════════════════
       FLUJO 2: CURRÍCULOS
  ════════════════════════════════════════════════════════ -->

  <text x="40" y="318" fill="#c2410c" font-size="13" font-weight="800">👤  FLUJO 2 — SELECCIÓN DE CURRÍCULOS</text>
  <line x1="40" y1="323" x2="1060" y2="323" stroke="#fed7aa" stroke-width="1.5"/>

  <!-- BOX A: CV -->
  <rect x="24" y="338" width="172" height="90" rx="14" fill="white" filter="url(#shadow)" stroke="#e2e8f0" stroke-width="1.5"/>
  <rect x="24" y="338" width="172" height="8" rx="7" fill="#0f2444"/>
  <rect x="24" y="342" width="172" height="4" fill="#0f2444"/>
  <text x="110" y="382" text-anchor="middle" fill="#0f172a" font-size="22">👤</text>
  <text x="110" y="403" text-anchor="middle" fill="#0f172a" font-size="12" font-weight="700">Currículo Vitae</text>
  <text x="110" y="418" text-anchor="middle" fill="#64748b" font-size="10">Foto / Escaneado / PDF</text>

  <!-- ARROW A→B -->
  <line x1="196" y1="383" x2="262" y2="383" stroke="#94a3b8" stroke-width="1.8" marker-end="url(#arr)" stroke-dasharray="5,3"/>
  <text x="229" y="378" text-anchor="middle" fill="#94a3b8" font-size="9">upload</text>

  <!-- BOX B: OCR (same) -->
  <rect x="264" y="338" width="180" height="90" rx="14" fill="white" filter="url(#shadow)" stroke="#bae6fd" stroke-width="2"/>
  <rect x="264" y="338" width="180" height="8" rx="7" fill="url(#ocrGrad)"/>
  <rect x="264" y="342" width="180" height="4" fill="url(#ocrGrad)"/>
  <text x="354" y="375" text-anchor="middle" fill="#0369a1" font-size="20">🔍</text>
  <text x="354" y="395" text-anchor="middle" fill="#0f172a" font-size="12" font-weight="700">OCR Processor</text>
  <text x="354" y="410" text-anchor="middle" fill="#64748b" font-size="10">pytesseract + OpenCV</text>
  <text x="354" y="423" text-anchor="middle" fill="#64748b" font-size="10">Extracción de texto CV</text>

  <!-- ARROW B→C -->
  <line x1="444" y1="383" x2="520" y2="383" stroke="#94a3b8" stroke-width="1.8" marker-end="url(#arr)" stroke-dasharray="5,3"/>
  <text x="482" y="378" text-anchor="middle" fill="#94a3b8" font-size="9">texto CV</text>

  <!-- BOX C: SelectorCV -->
  <rect x="522" y="338" width="196" height="90" rx="14" fill="white" filter="url(#shadow)" stroke="#fed7aa" stroke-width="2"/>
  <rect x="522" y="338" width="196" height="8" rx="7" fill="url(#cvGrad)"/>
  <rect x="522" y="342" width="196" height="4" fill="url(#cvGrad)"/>
  <text x="620" y="373" text-anchor="middle" fill="#9a3412" font-size="18">⚖️</text>
  <text x="620" y="392" text-anchor="middle" fill="#0f172a" font-size="12" font-weight="700">SelectorCV</text>
  <text x="620" y="408" text-anchor="middle" fill="#64748b" font-size="10">Feature Extraction (Regex/NLP)</text>
  <text x="620" y="422" text-anchor="middle" fill="#64748b" font-size="10">Scoring Ponderado + Ranking</text>

  <!-- ARROW C→D -->
  <line x1="718" y1="383" x2="800" y2="383" stroke="#94a3b8" stroke-width="1.8" marker-end="url(#arr)" stroke-dasharray="5,3"/>
  <text x="759" y="378" text-anchor="middle" fill="#94a3b8" font-size="9">puntaje + ranking</text>

  <!-- BOX D: Ranking -->
  <rect x="802" y="338" width="268" height="90" rx="14" fill="white" filter="url(#shadow)" stroke="#fed7aa" stroke-width="2"/>
  <rect x="802" y="338" width="268" height="8" rx="7" fill="url(#cvGrad)"/>
  <rect x="802" y="342" width="268" height="4" fill="url(#cvGrad)"/>
  <text x="936" y="373" text-anchor="middle" fill="#9a3412" font-size="18">🏆</text>
  <text x="936" y="392" text-anchor="middle" fill="#0f172a" font-size="12" font-weight="700">Ranking de Candidatos</text>
  <text x="820" y="413" fill="#64748b" font-size="10">1°  Ana García ——————— 87 pts  EXCELENTE</text>
  <text x="820" y="425" fill="#64748b" font-size="10">2°  Juan Torres ——————— 74 pts  MUY BUENO</text>

  <!-- ═══════════════════════════════════════════════════════
       ARQUITECTURA TÉCNICA
  ════════════════════════════════════════════════════════ -->

  <text x="40" y="478" fill="#374151" font-size="13" font-weight="800">🏗️  ARQUITECTURA TÉCNICA DEL SISTEMA</text>
  <line x1="40" y1="483" x2="1060" y2="483" stroke="#e2e8f0" stroke-width="1.5"/>

  <!-- Flask Web Server -->
  <rect x="24" y="498" width="240" height="120" rx="14" fill="white" filter="url(#shadow)" stroke="#bfdbfe" stroke-width="2"/>
  <rect x="24" y="498" width="240" height="30" rx="7" fill="#1e40af"/>
  <rect x="24" y="515" width="240" height="13" fill="#1e40af"/>
  <text x="144" y="519" text-anchor="middle" fill="white" font-size="12" font-weight="700">🌐  Flask Web Server</text>
  <text x="40" y="548" fill="#374151" font-size="10.5" font-weight="600">GET  /</text>
  <text x="40" y="563" fill="#374151" font-size="10.5">POST /api/tramite/procesar</text>
  <text x="40" y="578" fill="#374151" font-size="10.5">GET  /api/tramite/cola</text>
  <text x="40" y="593" fill="#374151" font-size="10.5">POST /api/cv/evaluar</text>
  <text x="40" y="608" fill="#374151" font-size="10.5">GET  /api/cv/ranking</text>

  <!-- OCR Module detail -->
  <rect x="290" y="498" width="230" height="120" rx="14" fill="white" filter="url(#shadow)" stroke="#bae6fd" stroke-width="2"/>
  <rect x="290" y="498" width="230" height="30" rx="7" fill="url(#ocrGrad)"/>
  <rect x="290" y="515" width="230" height="13" fill="url(#ocrGrad)"/>
  <text x="405" y="519" text-anchor="middle" fill="white" font-size="12" font-weight="700">🔍  ocr_processor.py</text>
  <text x="306" y="548" fill="#374151" font-size="10.5">• cv2.cvtColor → Escala de grises</text>
  <text x="306" y="563" fill="#374151" font-size="10.5">• GaussianBlur → Reduce ruido</text>
  <text x="306" y="578" fill="#374151" font-size="10.5">• adaptiveThreshold → Binariza</text>
  <text x="306" y="593" fill="#374151" font-size="10.5">• pytesseract → Extrae texto</text>
  <text x="306" y="608" fill="#374151" font-size="10.5">• Idioma: Español (spa)</text>

  <!-- Clasificador detail -->
  <rect x="556" y="498" width="230" height="120" rx="14" fill="white" filter="url(#shadow)" stroke="#c4b5fd" stroke-width="2"/>
  <rect x="556" y="498" width="230" height="30" rx="7" fill="url(#mlGrad)"/>
  <rect x="556" y="515" width="230" height="13" fill="url(#mlGrad)"/>
  <text x="671" y="519" text-anchor="middle" fill="white" font-size="12" font-weight="700">🤖  clasificador_tramites.py</text>
  <text x="572" y="548" fill="#374151" font-size="10.5">• TfidfVectorizer (ngram 1-2)</text>
  <text x="572" y="563" fill="#374151" font-size="10.5">• RandomForestClassifier (n=200)</text>
  <text x="572" y="578" fill="#374151" font-size="10.5">• class_weight='balanced'</text>
  <text x="572" y="593" fill="#374151" font-size="10.5">• Labels: CRÍTICO/ALTO/MEDIO/BAJO</text>
  <text x="572" y="608" fill="#374151" font-size="10.5">• joblib → persistencia del modelo</text>

  <!-- SelectorCV detail -->
  <rect x="822" y="498" width="248" height="120" rx="14" fill="white" filter="url(#shadow)" stroke="#fed7aa" stroke-width="2"/>
  <rect x="822" y="498" width="248" height="30" rx="7" fill="url(#cvGrad)"/>
  <rect x="822" y="515" width="248" height="13" fill="url(#cvGrad)"/>
  <text x="946" y="519" text-anchor="middle" fill="white" font-size="12" font-weight="700">⚖️  selector_cvs.py</text>
  <text x="838" y="548" fill="#374151" font-size="10.5">• Educación     → peso 30%</text>
  <text x="838" y="563" fill="#374151" font-size="10.5">• Experiencia   → peso 25%</text>
  <text x="838" y="578" fill="#374151" font-size="10.5">• Habilidades   → peso 20%</text>
  <text x="838" y="593" fill="#374151" font-size="10.5">• Certificaciones→ peso 15%</text>
  <text x="838" y="608" fill="#374151" font-size="10.5">• Idiomas       → peso 10%</text>

  <!-- ─── TECH STACK ─────────────────────────────────────── -->
  <text x="40" y="652" fill="#374151" font-size="13" font-weight="800">📦  STACK TECNOLÓGICO</text>
  <line x1="40" y1="657" x2="1060" y2="657" stroke="#e2e8f0" stroke-width="1.5"/>

  <!-- Tech pills -->
  <rect x="24"  y="668" width="110" height="30" rx="8" fill="#fff7ed" stroke="#fed7aa" stroke-width="1.5"/>
  <text x="79"  y="688" text-anchor="middle" fill="#9a3412" font-size="11" font-weight="700">🐍 Python 3.10</text>

  <rect x="146" y="668" width="90"  height="30" rx="8" fill="#eff6ff" stroke="#bfdbfe" stroke-width="1.5"/>
  <text x="191" y="688" text-anchor="middle" fill="#1e40af" font-size="11" font-weight="700">🌶 Flask 3.0</text>

  <rect x="248" y="668" width="126" height="30" rx="8" fill="#f5f3ff" stroke="#c4b5fd" stroke-width="1.5"/>
  <text x="311" y="688" text-anchor="middle" fill="#5b21b6" font-size="11" font-weight="700">🔬 scikit-learn</text>

  <rect x="386" y="668" width="136" height="30" rx="8" fill="#eff6ff" stroke="#bfdbfe" stroke-width="1.5"/>
  <text x="454" y="688" text-anchor="middle" fill="#0369a1" font-size="11" font-weight="700">🔍 pytesseract</text>

  <rect x="534" y="668" width="118" height="30" rx="8" fill="#f0fdf4" stroke="#bbf7d0" stroke-width="1.5"/>
  <text x="593" y="688" text-anchor="middle" fill="#166534" font-size="11" font-weight="700">👁 OpenCV</text>

  <rect x="664" y="668" width="118" height="30" rx="8" fill="#fdf4ff" stroke="#e9d5ff" stroke-width="1.5"/>
  <text x="723" y="688" text-anchor="middle" fill="#7e22ce" font-size="11" font-weight="700">🧮 TF-IDF + RF</text>

  <rect x="794" y="668" width="100" height="30" rx="8" fill="#fff1f1" stroke="#fecaca" stroke-width="1.5"/>
  <text x="844" y="688" text-anchor="middle" fill="#991b1b" font-size="11" font-weight="700">💾 joblib</text>

  <rect x="906" y="668" width="158" height="30" rx="8" fill="#fefce8" stroke="#fde68a" stroke-width="1.5"/>
  <text x="985" y="688" text-anchor="middle" fill="#854d0e" font-size="11" font-weight="700">📊 pandas / numpy</text>

  <!-- ─── FLUJO ALERT ────────────────────────────────────── -->
  <!-- Alert connector from BOX4 down -->
  <line x1="936" y1="268" x2="936" y2="300" stroke="#22c55e" stroke-width="2" stroke-dasharray="4,3"/>
  <rect x="820" y="300" width="230" height="32" rx="8" fill="#f0fdf4" stroke="#bbf7d0" stroke-width="1.5"/>
  <text x="935" y="321" text-anchor="middle" fill="#166534" font-size="11" font-weight="600">🔔 Alerta SMS/Email → Ciudadano</text>

  <!-- Footer -->
  <rect x="0" y="730" width="1100" height="50" fill="url(#headerGrad)"/>
  <text x="550" y="750" text-anchor="middle" fill="rgba(255,255,255,0.5)" font-size="10">SENATI · Taller de Desarrollo de Aplicaciones con Machine Learning · Municipalidad Provincial de Yau</text>
  <text x="550" y="768" text-anchor="middle" fill="rgba(255,255,255,0.35)" font-size="9">Flujo 1: OCR → TF-IDF + Random Forest → Priorización  |  Flujo 2: OCR → Feature Extraction → Scoring Ponderado → Ranking</text>
</svg>
